grf
version=1
nRows=9
nColumns=37
inDegrees=no
endheader
time	ground_force_1_vx	ground_force_1_vy	ground_force_1_vz	ground_force_1_px	ground_force_1_py	ground_force_1_pz	ground_moment_1_mx	ground_moment_1_my	ground_moment_1_mz	ground_force_2_vx	ground_force_2_vy	ground_force_2_vz	ground_force_2_px	ground_force_2_py	ground_force_2_pz	ground_moment_2_mx	ground_moment_2_my	ground_moment_2_mz	ground_force_3_vx	ground_force_3_vy	ground_force_3_vz	ground_force_3_px	ground_force_3_py	ground_force_3_pz	ground_moment_3_mx	ground_moment_3_my	ground_moment_3_mz	ground_force_4_vx	ground_force_4_vy	ground_force_4_vz	ground_force_4_px	ground_force_4_py	ground_force_4_pz	ground_moment_4_mx	ground_moment_4_my	ground_moment_4_mz
      0.00000000	      0.00000000	     -0.00000000	      0.00000000	      0.00000000	      0.00000000	      0.00000000	      0.00000000	      0.00000000	      0.00000000	      1.50471008	     40.39979172	   -370.67373657	   -333.47457422	  -1113.80161699	      0.00000000	      0.00000000	      0.00000000	   1644.22070267	     -8.06084198	    -81.20301748	   -542.11639404	   -317.13630586	   -702.99395586	      0.00000000	      0.00000000	     -0.00000000	  -3175.53091240	      0.00000000	     -0.00000000	      0.00000000	      0.00000000	      0.00000000	      0.00000000	      0.00000000	      0.00000000	      0.00000000
      0.01000000	      0.00000000	     -0.00000000	      0.00000000	      0.00000000	      0.00000000	      0.00000000	      0.00000000	      0.00000000	      0.00000000	      1.23718047	     39.96568680	   -373.29168701	   -333.99290681	  -1115.28990988	      0.00000000	      0.00000000	      0.00000000	   1598.46784670	     -8.10792304	    -81.89758993	   -544.07073975	   -316.70087488	   -703.09622287	      0.00000000	      0.00000000	     -0.00000000	  -3006.63129601	      0.00000000	     -0.00000000	      0.00000000	      0.00000000	      0.00000000	      0.00000000	      0.00000000	      0.00000000	      0.00000000
      0.02000000	      0.00000000	     -0.00000000	      0.00000000	      0.00000000	      0.00000000	      0.00000000	      0.00000000	      0.00000000	      0.00000000	      0.54309332	     39.95365143	   -371.19213867	   -331.97052360	  -1113.99904696	      0.00000000	      0.00000000	      0.00000000	   1613.83854273	     -8.28492506	    -82.73841785	   -545.75341797	   -315.91158004	   -703.21216678	      0.00000000	      0.00000000	     -0.00000000	  -2975.47080444	      0.00000000	     -0.00000000	      0.00000000	      0.00000000	      0.00000000	      0.00000000	      0.00000000	      0.00000000	      0.00000000
      0.03000000	      0.00000000	     -0.00000000	      0.00000000	      0.00000000	      0.00000000	      0.00000000	      0.00000000	      0.00000000	      0.00000000	     -0.72518837	     39.55091095	   -369.38067627	   -331.21632444	  -1114.84612057	      0.00000000	      0.00000000	      0.00000000	   1589.04482911	     -8.26159443	    -83.37567066	   -546.16351318	   -315.24335728	   -702.40992797	      0.00000000	      0.00000000	     -0.00000000	  -2899.74802901	      0.00000000	     -0.00000000	      0.00000000	      0.00000000	      0.00000000	      0.00000000	      0.00000000	      0.00000000	      0.00000000
      0.04000000	      0.00000000	     -0.00000000	      0.00000000	      0.00000000	      0.00000000	      0.00000000	      0.00000000	      0.00000000	      0.00000000	     -2.14105225	     39.53977966	   -364.69970703	   -330.33979690	  -1114.43204022	      0.00000000	      0.00000000	      0.00000000	   1464.30744498	     -8.55950033	    -83.15595171	   -543.15441895	   -314.90297097	   -702.73547472	      0.00000000	      0.00000000	     -0.00000000	  -2963.31558268	      0.00000000	     -0.00000000	      0.00000000	      0.00000000	      0.00000000	      0.00000000	      0.00000000	      0.00000000	      0.00000000
      0.05000000	      0.00000000	     -0.00000000	      0.00000000	      0.00000000	      0.00000000	      0.00000000	      0.00000000	      0.00000000	      0.00000000	     -3.05571890	     39.11697769	   -362.27328491	   -329.31621482	  -1115.08018788	      0.00000000	      0.00000000	      0.00000000	   1383.40408984	     -8.20644631	    -83.46398854	   -542.27673340	   -313.88481357	   -701.66955875	      0.00000000	      0.00000000	     -0.00000000	  -2869.57188299	      0.00000000	     -0.00000000	      0.00000000	      0.00000000	      0.00000000	      0.00000000	      0.00000000	      0.00000000	      0.00000000
      0.06000000	      0.00000000	     -0.00000000	      0.00000000	      0.00000000	      0.00000000	      0.00000000	      0.00000000	      0.00000000	      0.00000000	     -3.43455863	     39.33998871	   -360.59674072	   -328.47639199	  -1115.00050575	      0.00000000	      0.00000000	      0.00000000	   1318.48064358	     -8.43865358	    -83.09963153	   -538.60961914	   -313.31658728	   -701.21026471	      0.00000000	      0.00000000	     -0.00000000	  -2944.36479173	      0.00000000	     -0.00000000	      0.00000000	      0.00000000	      0.00000000	      0.00000000	      0.00000000	      0.00000000	      0.00000000
      0.07000000	      0.00000000	     -0.00000000	      0.00000000	      0.00000000	      0.00000000	      0.00000000	      0.00000000	      0.00000000	      0.00000000	     -4.33719492	     38.98301315	   -361.21585083	   -329.30681991	  -1114.99566183	      0.00000000	      0.00000000	      0.00000000	   1236.85839024	     -9.02650603	    -82.75741498	   -534.85699463	   -311.85475411	   -700.81859061	      0.00000000	      0.00000000	     -0.00000000	  -2923.44439799	      0.00000000	     -0.00000000	      0.00000000	      0.00000000	      0.00000000	      0.00000000	      0.00000000	      0.00000000	      0.00000000
      0.08000000	      0.00000000	     -0.00000000	      0.00000000	      0.00000000	      0.00000000	      0.00000000	      0.00000000	      0.00000000	      0.00000000	     -4.57152843	     39.45211029	   -363.15524292	   -329.02253714	  -1116.01599925	      0.00000000	      0.00000000	      0.00000000	   1295.75294228	     -8.91460373	    -82.07250899	   -529.88372803	   -311.38117992	   -700.79086683	      0.00000000	      0.00000000	     -0.00000000	  -3034.12884086	      0.00000000	     -0.00000000	      0.00000000	      0.00000000	      0.00000000	      0.00000000	      0.00000000	      0.00000000	      0.00000000
